<svg xmlns="http://www.w3.org/2000/svg" width="1600" height="900">
  <defs>
    <linearGradient id="hero-bg" x1="0" x2="1" y1="0" y2="1">
      <stop offset="0%" stop-color="#fff7f2" />
      <stop offset="100%" stop-color="#f2f7f0" />
    </linearGradient>
    <radialGradient id="hero-petal" cx="0.5" cy="0.5" r="0.45">
      <stop offset="0%" stop-color="#ffffff" stop-opacity="0.9" />
      <stop offset="100%" stop-color="#ebcfc4" stop-opacity="0" />
    </radialGradient>
    <radialGradient id="hero-petal-2" cx="0.5" cy="0.5" r="0.5">
      <stop offset="0%" stop-color="#a7c7a1" stop-opacity="0.55" />
      <stop offset="100%" stop-color="#a7c7a1" stop-opacity="0" />
    </radialGradient>
  </defs>
  <rect width="1600" height="900" fill="url(#hero-bg)" />
  <g opacity="0.8">
    <circle cx="280" cy="180" r="220" fill="url(#hero-petal)" />
    <circle cx="1340" cy="200" r="240" fill="url(#hero-petal)" />
    <circle cx="900" cy="680" r="280" fill="url(#hero-petal)" />
    <circle cx="420" cy="660" r="250" fill="url(#hero-petal-2)" />
    <circle cx="1180" cy="520" r="260" fill="url(#hero-petal-2)" />
  </g>
  <g fill="none" stroke="#d9c7b7" stroke-width="3" opacity="0.3">
    <path d="M160 620c180-140 420-240 640-200 220 40 380 200 520 320" />
    <path d="M220 220c80 40 140 100 180 180s60 180 20 260" />
    <path d="M1020 200c100 40 180 120 220 210s40 200-10 290" />
  </g>
  <g fill="none" stroke="#a7c7a1" stroke-width="2" opacity="0.35">
    <path d="M120 340c70-30 140-30 210 10" />
    <path d="M1320 660c60 0 120 20 170 70" />
  </g>
</svg>
